# xmcd
# Copyright (C) 1995-1998 Ti Kan
#
# Track frame offsets:
#       150
#       20109
#       37135
#       52535
#       73973
#       90910
#       108654
#       133373
#       150560
#       176017
#       198545
#
# Disc length: 2833 seconds
#
# Revision: 1
# Processed by: cddbd v1.5.2PL0 Copyright (c) Steve Scherf et al.
# Submitted via: CD-Transfer v1.0
#
DISCID=9b0b0f0b
DTITLE=Boa - M. Puljiz, S. Remenariæ
DYEAR=12
DGENRE=
TTITLE0=Pijavice
TTITLE1=Nevidljivi
TTITLE2=Fake
TTITLE3=Crni Put
TTITLE4=Zlatna Groznica
TTITLE5=Tajne
TTITLE6=Imala Je Mraz U Ustima
TTITLE7=Dublje Znaèenje
TTITLE8=Lavina
TTITLE9=Proba
TTITLE10=Imala Je Mraaz U Ustima (Radio Verzija)
EXTD=
EXTT0=
EXTT1=
EXTT2=
EXTT3=
EXTT4=
EXTT5=
EXTT6=
EXTT7=
EXTT8=
EXTT9=
EXTT10=
PLAYORDER=
